<svg width="22" height="22" viewBox="0 0 22 22" fill="none" xmlns="http://www.w3.org/2000/svg">
<g id="Group">
<g id="Group_2">
<path id="Path" d="M10.9974 15.585C10.7681 15.585 10.5805 15.7725 10.583 16.0018C10.583 16.2311 10.7706 16.4186 10.9999 16.4186C11.2291 16.4186 11.4167 16.2311 11.4167 16.0018C11.4167 15.7725 11.2291 15.585 10.9974 15.585" stroke="#D5D5D5" stroke-width="2.4" stroke-linecap="round" stroke-linejoin="round"/>
<path id="Path_2" d="M10.9974 10.583C10.7681 10.583 10.5805 10.7706 10.583 10.9998C10.583 11.2291 10.7706 11.4167 10.9999 11.4167C11.2291 11.4167 11.4167 11.2291 11.4167 10.9998C11.4167 10.7706 11.2291 10.583 10.9974 10.583" stroke="#D5D5D5" stroke-width="2.4" stroke-linecap="round" stroke-linejoin="round"/>
<path id="Path_3" d="M10.9974 5.58105C10.7681 5.58105 10.5805 5.76863 10.583 5.99789C10.583 6.22716 10.7706 6.41473 10.9999 6.41473C11.2291 6.41473 11.4167 6.22716 11.4167 5.99789C11.4167 5.76863 11.2291 5.58105 10.9974 5.58105" stroke="#D5D5D5" stroke-width="2.4" stroke-linecap="round" stroke-linejoin="round"/>
</g>
</g>
</svg>
